<?xml version="1.0" encoding="utf-8"?>
<!-- Generator: Adobe Illustrator 22.1.0, SVG Export Plug-In . SVG Version: 6.00 Build 0)  -->
<svg version="1.1" id="Layer_1" xmlns="http://www.w3.org/2000/svg" xmlns:xlink="http://www.w3.org/1999/xlink" x="0px" y="0px"
	 width="206.1px" height="206.1px" viewBox="0 0 206.1 206.1" style="enable-background:new 0 0 206.1 206.1;" xml:space="preserve"
	>
<style type="text/css">
	.st0{fill:#FFFFFF;}
	.st1{fill:#717375;}
	.st2{fill:#6E686A;}
	.st3{fill:#17AAE2;}
</style>
<g>
	<path class="st0" d="M103.1,205.6c-56.6,0-102.6-46-102.6-102.6c0-56.6,46-102.6,102.6-102.6c56.6,0,102.6,46,102.6,102.6
		C205.6,159.6,159.6,205.6,103.1,205.6z"/>
	<path class="st1" d="M103.1,1c56.3,0,102.1,45.8,102.1,102.1s-45.8,102.1-102.1,102.1C46.8,205.1,1,159.4,1,103.1S46.8,1,103.1,1
		 M103.1,0C46.1,0,0,46.1,0,103.1s46.1,103.1,103.1,103.1c56.9,0,103.1-46.1,103.1-103.1S160,0,103.1,0L103.1,0z"/>
</g>
<g>
	<path class="st2" d="M151.5,46.2v69.9H63V46.2H151.5 M151.5,37.6H63c-4.7,0-8.6,3.9-8.6,8.6v69.9c0,4.7,3.9,8.6,8.6,8.6h88.5
		c4.7,0,8.6-3.9,8.6-8.6V46.2C160,41.5,156.2,37.6,151.5,37.6L151.5,37.6z"/>
	<g>
		<path class="st3" d="M138.6,81.3l-12.4,12.4c-0.2,0.2-0.5,0.3-0.8,0.3c-0.3,0-0.5-0.1-0.8-0.3l-2.8-2.8c-0.2-0.2-0.3-0.5-0.3-0.8
			c0-0.3,0.1-0.5,0.3-0.8l8.9-8.9l-8.9-8.9c-0.2-0.2-0.3-0.5-0.3-0.8c0-0.3,0.1-0.5,0.3-0.8l2.8-2.8c0.2-0.2,0.5-0.3,0.8-0.3
			c0.3,0,0.5,0.1,0.8,0.3l12.4,12.4c0.2,0.2,0.3,0.5,0.3,0.8C138.9,80.8,138.8,81.1,138.6,81.3z"/>
	</g>
	<g>
		<path class="st3" d="M76.9,79.8l12.4-12.4c0.2-0.2,0.5-0.3,0.8-0.3c0.3,0,0.5,0.1,0.8,0.3l2.8,2.8c0.2,0.2,0.3,0.5,0.3,0.8
			c0,0.3-0.1,0.5-0.3,0.8l-8.9,8.9l8.9,8.9c0.2,0.2,0.3,0.5,0.3,0.8c0,0.3-0.1,0.5-0.3,0.8l-2.8,2.8c-0.2,0.2-0.5,0.3-0.8,0.3
			c-0.3,0-0.5-0.1-0.8-0.3L76.9,81.3c-0.2-0.2-0.3-0.5-0.3-0.8C76.6,80.2,76.7,80,76.9,79.8z"/>
	</g>
	<path class="st3" d="M96.9,100.4c-0.4,0-0.7-0.1-1.1-0.3c-1-0.6-1.4-1.9-0.7-2.9l21.4-36c0.6-1,1.9-1.3,2.9-0.7
		c1,0.6,1.4,1.9,0.7,2.9l-21.4,36C98.3,100,97.6,100.4,96.9,100.4z"/>
	<path class="st3" d="M68.4,146.9c0,0,0.1-0.1,0.1-0.1c2-2.1,2-5.5-0.2-7.6c-2.1-2-5.5-2-7.6,0.2c0,0-0.1,0.1-0.1,0.2l-19.4,17.9
		c-1.8,1.9-1.8,5,0.1,6.8l3.1,3c1.9,1.8,5,1.8,6.8-0.1L68.4,146.9z"/>
	<path class="st3" d="M100.2,135.4c7.8-8.1,7.5-21-0.6-28.8s-21-7.5-28.8,0.6c-6.9,7.2-7.5,18-1.9,25.8c-0.5,0.1-0.9,0.4-1.3,0.7
		c-1,1.1-1,2.8,0.1,3.8l2.3,2.2c1.1,1,2.8,1,3.8-0.1c0.4-0.4,0.6-0.9,0.7-1.3C82.5,143.6,93.3,142.6,100.2,135.4z"/>
</g>
</svg>
