<?xml version="1.0" encoding="utf-8"?>
<!-- Generator: Adobe Illustrator 22.1.0, SVG Export Plug-In . SVG Version: 6.00 Build 0)  -->
<svg version="1.1" id="Layer_1" xmlns="http://www.w3.org/2000/svg" xmlns:xlink="http://www.w3.org/1999/xlink" x="0px" y="0px"
	 width="206.1px" height="206.1px" viewBox="0 0 206.1 206.1" style="enable-background:new 0 0 206.1 206.1;" xml:space="preserve"
	>
<style type="text/css">
	.st0{fill:#FFFFFF;}
	.st1{fill:#828181;}
	.st2{fill:#27AAE1;}
</style>
<g>
	<path class="st0" d="M103.1,205C46.9,205,1.2,159.2,1.2,103.1S46.9,1.2,103.1,1.2c56.2,0,101.9,45.7,101.9,101.9
		S159.2,205,103.1,205z"/>
	<path class="st1" d="M103.1,2.4c55.5,0,100.7,45.2,100.7,100.7s-45.2,100.7-100.7,100.7c-55.5,0-100.7-45.2-100.7-100.7
		S47.6,2.4,103.1,2.4 M103.1,0C46.1,0,0,46.1,0,103.1s46.1,103.1,103.1,103.1c56.9,0,103.1-46.1,103.1-103.1S160,0,103.1,0L103.1,0z
		"/>
</g>
<g>
	<path class="st2" d="M65,69.5c2.4,0,4.4,2,4.4,4.4c0,2.4-2,4.4-4.4,4.4c-2.4,0-4.4-2-4.4-4.4C60.6,71.5,62.5,69.5,65,69.5"/>
	<path class="st2" d="M76.4,69.5c2.4,0,4.4,2,4.4,4.4c0,2.4-2,4.4-4.4,4.4c-2.4,0-4.4-2-4.4-4.4C72,71.5,74,69.5,76.4,69.5"/>
	<path class="st2" d="M87.9,69.5c2.4,0,4.4,2,4.4,4.4c0,2.4-2,4.4-4.4,4.4c-2.4,0-4.4-2-4.4-4.4C83.5,71.5,85.5,69.5,87.9,69.5"/>
	<path class="st2" d="M101.7,78.3c-2.4,0-4.4-2-4.4-4.4c0-2.4,2-4.4,4.4-4.4h39.4c2.4,0,4.4,2,4.4,4.4c0,2.4-2,4.4-4.4,4.4H101.7z"
		/>
	<path class="st1" d="M55.2,55.9h95.7c2.7,0,5.1,1.1,6.9,2.9l0,0l0,0c1.8,1.8,2.9,4.3,2.9,7v74.7c0,2.7-1.1,5.2-2.9,7l0,0
		c-1.8,1.8-4.2,2.9-6.9,2.9h-19c-2.4,0-4.4-2-4.4-4.4c0-2.4,2-4.4,4.4-4.4h19c0.3,0,0.6-0.1,0.7-0.3v0c0.2-0.2,0.3-0.5,0.3-0.7V65.7
		c0-0.3-0.1-0.6-0.3-0.7l0,0c-0.2-0.2-0.4-0.3-0.7-0.3H55.2c-0.3,0-0.5,0.1-0.7,0.3h0c-0.2,0.2-0.3,0.4-0.3,0.7v74.7
		c0,0.3,0.1,0.5,0.3,0.7c0.2,0.2,0.4,0.3,0.7,0.3h18.6c2.4,0,4.4,2,4.4,4.4c0,2.4-2,4.4-4.4,4.4H55.2c-2.7,0-5.2-1.1-7-2.9
		c-1.8-1.8-2.9-4.3-2.9-7V65.7c0-2.7,1.1-5.2,2.9-7l0,0C50.1,57,52.5,55.9,55.2,55.9"/>
	<path class="st1" d="M117.3,137.5c0.5-1.3,0.8-2.8,1.1-4.3c1.2-0.4,2.2-0.9,3.1-1.5C120.7,133.9,119.2,135.8,117.3,137.5
		 M113.2,144.5c1-1.1,1.9-2.5,2.7-4c1.4-0.8,2.6-1.8,3.7-2.9C118.1,140.4,115.9,142.8,113.2,144.5 M107.7,146.4c0.5-0.9,1-2,1.4-3.3
		c1.4-0.3,2.8-0.7,4-1.2C111.6,144,109.7,145.6,107.7,146.4 M104.4,147c-0.9,0-1.9-1.3-2.8-3.6c0.9,0.1,1.8,0.2,2.8,0.2
		c0.9,0,1.9-0.1,2.8-0.2C106.3,145.7,105.3,147,104.4,147 M99.8,135.1c1.5,0.1,3.1,0.2,4.6,0.2c1.5,0,3.1-0.1,4.6-0.2
		c-0.3,2.5-0.7,4.7-1.2,6.4c-1.1,0.2-2.2,0.3-3.4,0.3c-1.2,0-2.3-0.1-3.4-0.3C100.5,139.7,100.1,137.6,99.8,135.1 M99.4,128.2
		c0-1.8,0.1-3.5,0.2-5.1c1.5-0.1,3.1-0.2,4.8-0.2c1.7,0,3.3,0.1,4.8,0.2c0.1,1.6,0.2,3.3,0.2,5.1c0,1.8-0.1,3.5-0.2,5.1
		c-1.5,0.1-3.1,0.2-4.8,0.2c-1.7,0-3.3-0.1-4.8-0.2C99.5,131.7,99.4,130,99.4,128.2 M101,114.9c1.1-0.2,2.2-0.3,3.4-0.3
		c1.2,0,2.3,0.1,3.4,0.3c0.5,1.8,0.9,3.9,1.2,6.4c-1.5-0.1-3.1-0.2-4.6-0.2c-1.5,0-3.1,0.1-4.6,0.2
		C100.1,118.8,100.5,116.7,101,114.9 M104.4,109.4c0.9,0,1.9,1.3,2.8,3.6c-0.9-0.1-1.8-0.2-2.8-0.2c-1,0-1.9,0.1-2.8,0.2
		C102.5,110.7,103.5,109.4,104.4,109.4 M113.1,114.5c-1.3-0.5-2.6-0.9-4-1.2c-0.4-1.3-0.9-2.4-1.4-3.3
		C109.7,110.8,111.6,112.4,113.1,114.5 M110.9,133.1c0.1-1.6,0.2-3.3,0.2-4.9c0-1.6-0.1-3.3-0.2-4.9c2.4,0.3,4.4,0.8,6,1.3
		c0.1,1.2,0.2,2.4,0.2,3.6c0,1.2-0.1,2.4-0.2,3.6C115.2,132.3,113.2,132.8,110.9,133.1 M109.6,115.2c1.8,0.4,3.6,1.1,5.1,2
		c0.8,1.6,1.4,3.5,1.9,5.4c-1.8-0.5-3.8-0.9-5.9-1.1C110.5,119.2,110.1,117.1,109.6,115.2 M110.7,134.9c2.1-0.3,4.1-0.6,5.9-1.1
		c-0.4,2-1.1,3.8-1.9,5.4c-1.5,0.8-3.2,1.5-5.1,2C110.1,139.3,110.5,137.1,110.7,134.9 M119.7,118.8c-1.1-1.1-2.3-2.1-3.7-2.9
		c-0.8-1.5-1.7-2.8-2.7-4C115.9,113.6,118.1,115.9,119.7,118.8 M118.4,123.2c-0.3-1.5-0.6-2.9-1.1-4.3c2,1.6,3.4,3.6,4.2,5.8
		C120.6,124.1,119.6,123.6,118.4,123.2 M122,128.2L122,128.2c0,0.9-1.2,2-3.4,3c0.1-1,0.2-2,0.2-3c0-1-0.1-2-0.2-3
		C120.8,126.2,122,127.3,122,128.2L122,128.2z M123.7,128.1c0-11.3-8.7-20.6-19.3-20.6c-0.1,0-0.3,0-0.4,0l0,0c0,0-0.1,0-0.1,0h0.1
		c-0.1,0-0.2,0-0.3,0c0.1,0,0.2,0,0.3,0c0,0,0,0-0.1,0c-4,0.8-6.2,10.9-6.2,20.5c0,9.7,2.2,20.1,6.3,20.6c0,0,0,0,0,0v0
		c0.1,0,0.2,0,0.3,0c10.6,0,19.3-9.2,19.3-20.5C123.7,128.2,123.7,128.2,123.7,128.1C123.7,128.2,123.7,128.2,123.7,128.1"/>
	<path class="st2" d="M86.8,137.7c1.1,1.1,2.3,2.1,3.7,2.9c0.8,1.5,1.7,2.8,2.7,4C90.5,142.9,88.3,140.5,86.8,137.7 M88,133.2
		c0.3,1.5,0.6,2.9,1.1,4.3c-2-1.6-3.4-3.6-4.2-5.8C85.8,132.3,86.8,132.8,88,133.2 M84.4,128.2c0-0.9,1.2-2,3.4-3
		c-0.1,1-0.2,1.9-0.2,3c0,1,0.1,2,0.2,3C85.6,130.3,84.4,129.2,84.4,128.2 M89.1,119c-0.5,1.3-0.8,2.8-1.1,4.3
		c-1.2,0.4-2.2,0.9-3.1,1.5C85.7,122.6,87.2,120.6,89.1,119 M93.2,112c-1,1.1-1.9,2.5-2.7,4c-1.4,0.8-2.6,1.8-3.7,2.9
		C88.3,116,90.5,113.6,93.2,112 M101.7,148.8C101.7,148.8,101.7,148.8,101.7,148.8c-0.8-0.2-1.6-0.9-2.2-2c0-0.1-0.1-0.1-0.1-0.2
		c-2.3-0.7-4.4-2.4-6.1-4.7c1.5,0.6,3.1,1.1,4.7,1.3c-0.2-0.6-0.4-1.2-0.5-1.9c-2.1-0.4-4.1-1.2-5.8-2.1c-0.8-1.6-1.4-3.4-1.9-5.4
		c2,0.6,4.3,1,6.7,1.2c-0.1-0.6-0.1-1.2-0.2-1.8c-2.7-0.3-5-0.8-6.8-1.4c-0.2-1.2-0.2-2.4-0.2-3.6c0-1.2,0.1-2.4,0.2-3.6
		c1.8-0.6,4.1-1.1,6.8-1.4c0-0.6,0.1-1.2,0.2-1.8c-2.4,0.3-4.7,0.7-6.7,1.2c0.4-2,1.1-3.8,1.9-5.4c1.7-1,3.7-1.7,5.8-2.1
		c0.1-0.7,0.3-1.3,0.5-1.9c-1.7,0.3-3.2,0.7-4.7,1.3c1.7-2.3,3.8-4,6.1-4.7c0-0.1,0.1-0.1,0.1-0.2c0.6-1,1.3-1.7,2-1.9
		c0,0,0.1-0.1,0.1-0.1c0,0,0,0,0,0c-10.4,0.2-18.9,9.4-18.9,20.6v0C82.7,139.5,91.2,148.7,101.7,148.8
		C101.7,148.8,101.7,148.8,101.7,148.8"/>
</g>
</svg>
